<svg xmlns="http://www.w3.org/2000/svg" viewBox="0 0 426.95 288.57"><defs><style>.cls-1{fill:#fff;}.cls-2{fill:#e3e5ff;}.cls-3{fill:#e6e6e6;}.cls-4{fill:#3943b3;}.cls-17,.cls-18,.cls-19,.cls-5,.cls-7,.cls-8{fill:none;stroke-miterlimit:10;}.cls-5{stroke:#fff;}.cls-6{fill:#ffb939;}.cls-7,.cls-8{stroke:#b3b3b3;}.cls-8{stroke-dasharray:6.81 6.81;}.cls-9{fill:#ffa320;}.cls-10{fill:#eb4334;}.cls-11{fill:#ffc69a;}.cls-12{fill:#daa184;}.cls-13{fill:#411809;}.cls-14{fill:#4753de;}.cls-15{fill:#ffb780;}.cls-16{opacity:0.1;}.cls-17,.cls-18,.cls-19{stroke:#3943b3;}.cls-17,.cls-18{stroke-linecap:round;}.cls-17{stroke-width:2px;}</style></defs><g id="Layer_2" data-name="Layer 2"><g id="OBJECTS"><rect class="cls-1" width="426.95" height="288.57" rx="14.99"/><path class="cls-2" d="M106.94,76.52c34.66-27.69,79.53-18,81.4-17.56,28.35,6.59,27.08,21.37,58,32.46,45.13,16.18,68.84-7.76,94.71,10.64,20.22,14.38,28.7,45.34,22.88,68.63-10.76,43.1-72.44,68.13-119.18,62.26-44.62-5.61-56.39-37-105.88-36.18-32,.51-42.93,13.88-55.34,5.32C59.71,185.64,63.52,111.19,106.94,76.52Z"/><rect class="cls-1" x="115.03" y="85.45" width="203.92" height="137.83" rx="9.6"/><path class="cls-3" d="M311.09,85.92H124.2c-4.87-.19-8.89,3.14-8.74,8.76v3l203.08-.19V94.07C318.54,89.75,315.14,85.92,311.09,85.92Z"/><rect class="cls-4" x="131.75" y="159.42" width="71.86" height="25.45" rx="2.33"/><path class="cls-1" d="M153.08,172.51a6.91,6.91,0,1,1-6.91-6.91A6.91,6.91,0,0,1,153.08,172.51Z"/><line class="cls-5" x1="158.89" y1="173.24" x2="195.25" y2="173.24"/><line class="cls-5" x1="158.89" y1="168.53" x2="176.31" y2="168.53"/><line class="cls-5" x1="158.89" y1="177.6" x2="195.25" y2="177.6"/><path class="cls-6" d="M307.55,112.72v-3.47a4,4,0,0,0-4-4H227.94a4,4,0,0,0-4,4v33.9Z"/><rect class="cls-6" x="245.05" y="107.6" width="15.26" height="32.33" transform="translate(-27.89 102.6) rotate(-21.78)"/><rect class="cls-7" x="223.98" y="105.29" width="83.57" height="97.31" rx="5.23"/><rect class="cls-6" x="239.86" y="118.58" width="15.26" height="32.33" transform="translate(-32.33 101.46) rotate(-21.78)"/><rect class="cls-6" x="231.84" y="130.6" width="15.26" height="15.26" transform="translate(-34.2 98.74) rotate(-21.78)"/><rect class="cls-6" x="287.35" y="111.65" width="15.26" height="21.72" transform="translate(-24.4 118.21) rotate(-21.78)"/><rect class="cls-3" x="131.99" y="105.29" width="71.62" height="10.4"/><rect class="cls-3" x="131.99" y="191.41" width="71.62" height="4.01"/><rect class="cls-3" x="131.99" y="198.89" width="71.62" height="4.01"/><rect class="cls-8" x="131.75" y="127.43" width="71.86" height="25.45" rx="2.33"/><circle class="cls-9" cx="300.59" cy="92.35" r="1.66"/><circle class="cls-10" cx="306.14" cy="92.35" r="1.66"/><circle class="cls-4" cx="311.7" cy="92.35" r="1.66"/><path class="cls-1" d="M291.52,95.09H123.66a3.27,3.27,0,0,1-3.27-3.27h0a3.28,3.28,0,0,1,3.27-3.27H291.52a3.27,3.27,0,0,1,3.27,3.27h0A3.26,3.26,0,0,1,291.52,95.09Z"/><rect class="cls-7" x="115.03" y="85.45" width="203.92" height="137.83" rx="9.6"/><rect class="cls-4" x="104.85" y="127.43" width="71.86" height="25.45" rx="2.33"/><path class="cls-1" d="M126.18,140.52a6.91,6.91,0,1,1-6.91-6.91A6.91,6.91,0,0,1,126.18,140.52Z"/><line class="cls-5" x1="131.99" y1="141.25" x2="168.35" y2="141.25"/><line class="cls-5" x1="131.99" y1="136.54" x2="149.41" y2="136.54"/><line class="cls-5" x1="131.99" y1="145.61" x2="168.35" y2="145.61"/><path class="cls-9" d="M97.23,233.64a42.25,42.25,0,0,1,6.72,2.51c1.77,1,2,1.8-.2,1.81a63.37,63.37,0,0,1-8.12-.37c-1.35-.21-.79-3.38-.56-3.92Z"/><polygon class="cls-11" points="96.84 233.64 97.3 231.89 94.96 232.16 95.07 233.67 96.84 233.64"/><path class="cls-4" d="M105.31,237.54a83.23,83.23,0,0,1-8.87-.61,3.82,3.82,0,0,1-1.67-.85c0,.76.27,1.42.86,1.51a63.37,63.37,0,0,0,8.12.37C104.7,238,105.19,237.8,105.31,237.54Z"/><path class="cls-12" d="M86.56,172.52s-.56-2.65,4.16-6.18A71.93,71.93,0,0,0,98,160.25l4.47-15.5,1.56.73s.09,12.17-.59,15.78S87.79,180.53,86.56,172.52Z"/><path class="cls-9" d="M98.83,156.43l5.08.73-.19,4.25S96.3,173,91.46,174.83s-7.74-1-6.55-3,12.3-11.44,12.3-11.44Z"/><rect class="cls-6" x="99.95" y="153.51" width="2.54" height="6.09" transform="translate(271.64 80.99) rotate(98.97)"/><path class="cls-12" d="M104,149s-2.93-7.18-2.07-8c0,0,2.74,4.63,3.57,6.58"/><path class="cls-6" d="M69.39,229.24a41.79,41.79,0,0,1,4.41,5.65c1,1.77.75,2.58-1.12,1.44A63.22,63.22,0,0,1,66,231.77c-1-.89,1.1-3.3,1.58-3.64Z"/><polygon class="cls-11" points="69.05 229.03 70.36 227.78 68.22 226.79 67.53 228.13 69.05 229.03"/><path class="cls-4" d="M95.75,190.61l-9.25-5.16S88.05,205,94,213.59c0,0,.05,15.7,1.08,19.09l2.16-.05s3.31-17.87,3-20.71C99.64,206.68,99.09,199.14,95.75,190.61Z"/><path class="cls-13" d="M85.94,154.67s-3.7,1.82-4,8.63-1.48,7.07-1.48,7.07a11.59,11.59,0,0,0,10.62,0Z"/><path class="cls-11" d="M90.41,155.31A8.07,8.07,0,0,1,92.69,161c.08,2.27-3.39,2.57-5.35,1.47a5.18,5.18,0,0,1-2.66-5C85.12,155,88.43,153.49,90.41,155.31Z"/><path class="cls-11" d="M88.39,158.08l-3.65.57,1.37,8.82a2.32,2.32,0,0,0,2.64,1.94h0a2.33,2.33,0,0,0,1.89-2.89Z"/><path class="cls-13" d="M88.78,154.85s.9,4.93-4,6.14c-3.45.85-3.35-7.74,1.52-7.92,6.84-.25,5.3,3.69,5.3,3.69S89.91,154.35,88.78,154.85Z"/><polygon class="cls-12" points="89.9 163.75 87.13 162.53 89.71 163 89.9 163.75"/><path class="cls-4" d="M94,186.57l-11.27,3s-3.17,4.3-2,21.05c0,0-9.84,8.27-12.59,16.33L70,228.13s13.85-12.38,15.8-14.48C88.11,211.13,92.63,202.74,94,186.57Z"/><path class="cls-6" d="M92.82,167.38a3.07,3.07,0,0,0-1.93-2.18c-2.09-.77-7.17-.81-7.21,6.05-.1,13.5-.94,18.31-.94,18.31s2.7,2.36,13,1.05l-1.36-8.52,1.21-2.62a8.45,8.45,0,0,0-.22-6.4Z"/><path class="cls-11" d="M88.63,173.07s-.57-2.66,4.16-6.19a72.37,72.37,0,0,0,7.27-6.09l4.47-15.5,1.56.74s.1,12.16-.59,15.77S89.86,181.07,88.63,173.07Z"/><path class="cls-11" d="M104.18,146.74s-1-4.37-.17-5.2c0,0,.84,1.82,1.67,3.77.26.61,2.91,2.52,1.54,2.32A16.63,16.63,0,0,1,104.18,146.74Z"/><path class="cls-11" d="M91.09,156.15a5.77,5.77,0,0,0,2,1.39,2,2,0,0,1-.86,1.19Z"/><path class="cls-4" d="M74.23,236.79A83.3,83.3,0,0,1,67,231.63,3.76,3.76,0,0,1,66,230c-.36.68-.51,1.36-.06,1.75a63.22,63.22,0,0,0,6.73,4.56C73.49,236.82,74,237,74.23,236.79Z"/><path class="cls-11" d="M67.7,228.23s2.46,4.26,3.55,3.16l-1.82-2.73Z"/><path class="cls-11" d="M95.33,233.6s4.32,2.42,4.62.9l-3-1.27Z"/><path class="cls-6" d="M101.27,156.62l4.63.85-.28,5.35S98.73,173.19,93.89,175s-7.73-1-6.55-3,12.3-11.44,12.3-11.44Z"/><rect class="cls-6" x="102.38" y="153.7" width="2.54" height="6.09" transform="translate(274.64 78.81) rotate(98.97)"/><path class="cls-4" d="M95.75,190.61,97,194l-7.79,8.59L89.9,191A39,39,0,0,0,95.75,190.61Z"/><path class="cls-14" d="M86.71,209.34c-1.58,1.63-2.09,2.37-2.31,3.33-.18.79,0,.89-.21,1.37-.59,1.29-2.29,1-4.36,2-1.51.69-2.5,1.8-4.49,4-1,1.1-.9,1.17-2.52,3.2-1.93,2.42-3.09,3.64-3.64,4.39l.79.51s13.85-12.38,15.8-14.48a23.56,23.56,0,0,0,4-7.11C89.48,206.49,88.55,207.45,86.71,209.34Z"/><rect class="cls-4" x="94.22" y="231.34" width="3.63" height="1.43" transform="translate(192.08 464.12) rotate(180)"/><rect class="cls-4" x="67.25" y="226.58" width="3.63" height="1.43" transform="translate(15.23 458.69) rotate(-150)"/><path class="cls-6" d="M81.79,160.17l8.31-6.57a5.3,5.3,0,1,0-8.31,6.57"/><path class="cls-9" d="M84.45,151.8a5.45,5.45,0,0,0-1.79.92,5.31,5.31,0,0,0-.87,7.45L84,158.46A5.3,5.3,0,0,1,84.45,151.8Z"/><rect class="cls-9" x="80.48" y="155.59" width="12.29" height="1.51" transform="translate(-76.29 82.83) rotate(-36.72)"/><path class="cls-4" d="M95.6,179.47a8.47,8.47,0,0,0,.13-5.47,12.13,12.13,0,0,1-7.86.3c-1.7-6.1,1-8.82,1.66-9.41a5.93,5.93,0,0,0-2.15.16c-1.06,1.53-2.16,4.27-1.24,8.57A10.56,10.56,0,0,1,83.67,172h0c-.12,12.92-1.26,18.15-1.26,18.15s3,1.77,13.34.46l-1.36-8.52Z"/><path class="cls-14" d="M100.2,211.92c-.56-5.24-1.11-12.78-4.45-21.31l-1.36-8.52,1.21-2.62a8.47,8.47,0,0,0,.13-5.47,13.06,13.06,0,0,1-1.57.46,10.17,10.17,0,0,1-.77,5.58,9.77,9.77,0,0,0-1.09,3,9.18,9.18,0,0,0,.27,3.81c1.17,4.52,2.32,7.77,2.32,7.77,1.61,4.54,2.41,6.8,2.45,7.9.16,4.13-1.73,6.45-.13,8.59.76,1,1.84,1.34,1.9,2.45s-.86,1.41-1.49,2.72c-.87,1.8-.1,3.1,0,5.73s-.64,3-1,5.86a24.54,24.54,0,0,0,0,4.77h.56S100.51,214.76,100.2,211.92Z"/><polygon class="cls-10" points="155.49 235.73 137.68 235.73 143.48 206.37 149.69 206.37 155.49 235.73"/><rect class="cls-10" x="133.46" y="234.27" width="25.43" height="3.04"/><polygon class="cls-10" points="155.49 235.73 137.68 235.73 143.48 206.37 149.69 206.37 155.49 235.73"/><polygon class="cls-1" points="141.02 218.81 152.15 218.81 151.24 214.21 141.93 214.21 141.02 218.81"/><polygon class="cls-1" points="138.89 229.57 154.27 229.57 153.37 224.97 139.8 224.97 138.89 229.57"/><path class="cls-4" d="M346.62,231.36s-7,3.84-9.27,3.87-.6,1,1.9,1.24a38.07,38.07,0,0,0,8.26-.82c.18,0,.73-.6.73-.6l.16.54a7.16,7.16,0,0,0,1.2-.09,25.46,25.46,0,0,0-.5-4.15Z"/><polygon class="cls-15" points="346.62 231.36 346.71 229.5 349.19 229.62 349.1 231.35 346.62 231.36"/><path class="cls-4" d="M346.54,175.47l8.26,1.41s-2.52,22.08-5.13,30.68c0,0,1.71,14.79-.12,22.79l-3.27.15s-2.79-18.91-3.54-22.1C341.83,204.57,343,195.31,346.54,175.47Z"/><polygon class="cls-4" points="345.56 228.64 345.81 230.78 349.9 230.69 350.12 228.76 345.56 228.64"/><path class="cls-4" d="M356.37,232.12s-7,3.84-9.27,3.86-.6,1,1.9,1.25a38.81,38.81,0,0,0,8.26-.83c.18,0,.73-.6.73-.6l.16.55a7,7,0,0,0,1.19-.1,24.64,24.64,0,0,0-.49-4.15Z"/><polygon class="cls-15" points="356.37 232.12 356.46 230.25 358.94 230.38 358.85 232.1 356.37 232.12"/><path class="cls-4" d="M350.55,176.77l8.75,6.82s2.88,4.26-1.52,24.21a49.34,49.34,0,0,1,1.38,23.26l-3.24.49s-3.91-20.34-5-23.44C349.63,204.39,348.59,194.06,350.55,176.77Z"/><polygon class="cls-4" points="355.1 229.57 355.52 231.69 359.6 231.26 359.66 229.33 355.1 229.57"/><polygon class="cls-4" points="349.91 183.46 345.15 183.33 344.39 187.9 351.28 199.71 349.91 183.46"/><path class="cls-6" d="M355,158.86s-3.25-2.93-7.21,3a76.42,76.42,0,0,1-6.55,8.68l-15-8.29-1.56,3.2s13.54,15.49,17.84,14.45S364.69,159.85,355,158.86Z"/><path class="cls-15" d="M324.71,165.53s-7.28-5.61-3.81-4.62c1.58.45,3,1.64,3.51,1.15s-.61-.93-.81-2,3.25,2.66,3.25,2.66Z"/><g class="cls-16"><polygon points="329.79 167.06 336.03 172.89 328.97 169.59 329.79 167.06"/></g><g class="cls-16"><polygon points="340.73 176.19 348.25 169.38 348.25 171.18 344.49 177.2 340.73 176.19"/></g><polygon class="cls-6" points="323.78 165.42 325.33 166.59 328.2 163.08 326.65 161.91 323.78 165.42"/><path class="cls-6" d="M351.84,156.49c2.51-.92,9.63-1.52,10.73,4.56,1,5.55-1.11,10.38-1.94,14.32a66.18,66.18,0,0,0-.92,7s-4.66,5.51-13.33,3l.56-9.43.59-5.22c-.48-5.93-.34-6.66.72-9.64.44-1.25,2.06-3.93,3.24-4.52Z"/><path class="cls-4" d="M348,166.18l-.74-.55c0-3.8,1.56-9,7.66-9.5h.2C347.27,157.65,348,166.09,348,166.18Z"/><path class="cls-15" d="M354.08,146.64l4.51,0-.54,9.41a1,1,0,0,1-.34.78,3.74,3.74,0,0,1-3.42.68c-1.52-.36-.41-1.06-.19-2.77Z"/><path class="cls-15" d="M353.51,144.52a10.63,10.63,0,0,0-2.37,7.68c.09,3.19,4.34,3.23,7,1.55a6.38,6.38,0,0,0,2.93-6.83C360.34,143.55,355.87,141.55,353.51,144.52Z"/><g class="cls-16"><polygon points="353.88 155.65 356.45 154.61 354.08 154.85 353.88 155.65"/></g><path class="cls-15" d="M352.06,147.55a11.86,11.86,0,0,0-1.85,2,2.21,2.21,0,0,0,1.2,1.08Z"/><path class="cls-13" d="M361.59,146.43c-.17-4.35-7.72-4.3-8.63-3.59a1.91,1.91,0,0,0-.34,2.92l.37-.28.21-.09c1.11.16,5,1,3.81,4-.29.78.37,1.13,1.16,1.17a13.17,13.17,0,0,1-.09,2.93C358,154.23,361.86,153.49,361.59,146.43Z"/><path class="cls-4" d="M321.7,154.33h1a0,0,0,0,1,0,0v20.53a0,0,0,0,1,0,0h-1.62a0,0,0,0,1,0,0V155A.62.62,0,0,1,321.7,154.33Z" transform="translate(-14.7 296.55) rotate(-48.49)"/><path class="cls-1" d="M329.45,166.4a2,2,0,0,1,.68,1.54l0,2.86-15.37-13.61,4.43.69a2.76,2.76,0,0,1,1.39.65Z"/><path class="cls-15" d="M355.61,151.18c.35.53,1.24.55,2,0s1.08-1.33.74-1.86a1.47,1.47,0,0,0-2,0C355.59,149.83,355.26,150.66,355.61,151.18Z"/><path class="cls-4" d="M359.76,184.84a84.14,84.14,0,0,1,.87-9.47c.33-1.58.86-3.3,1.32-5.15a40.86,40.86,0,0,1-14.67-4.73,51.08,51.08,0,0,0,.25,5.31L346.38,176l-1.6,9.56A22,22,0,0,0,359.76,184.84Z"/><path class="cls-4" d="M357,190.89l-2.93-.79c3.77-13.9,5.61-26.92,4-28.42-1-.93-1.72-.89-2.14-.77-2.21.61-4.34,5.43-5,7.67l-2.29-.89c.26-.86,2.11-8.48,6.51-9.7a5.15,5.15,0,0,1,5,1.44C364,163,359.23,182.61,357,190.89Z"/><path class="cls-6" d="M356.2,159.89s-2.95,0-6.15,6.34-4.87,8-4.87,8L330.1,167.6l-2.62,3.4s16.13,13.76,19.89,11.43C354.4,178.09,366,159.67,356.2,159.89Z"/><path class="cls-15" d="M327.48,171s-3.45.29-4.26-1.76c-.52-1.3-2.36-4.2-.54-2.86,1.14.84,2.7,2.41,3.17,1.75s-1.93-.89-1.31-2.15l4,2.27Z"/><polygon class="cls-6" points="326.29 171.87 328 172.77 330.87 167.69 329.16 166.79 326.29 171.87"/><path class="cls-6" d="M362.11,147.86l-9.44-4.8a5.3,5.3,0,0,1,9.44,4.8"/><path class="cls-9" d="M357.86,140.19a5.29,5.29,0,0,1,4.25,7.67l-2.45-1.25A5.29,5.29,0,0,0,357.86,140.19Z"/><rect class="cls-9" x="355.86" y="138.93" width="1.51" height="12.29" transform="translate(72.78 405.18) rotate(-64.64)"/><polygon class="cls-10" points="336.89 235.73 319.07 235.73 324.87 206.37 331.08 206.37 336.89 235.73"/><rect class="cls-10" x="314.85" y="234.27" width="25.43" height="3.04"/><polygon class="cls-10" points="336.89 235.73 319.07 235.73 324.87 206.37 331.08 206.37 336.89 235.73"/><polygon class="cls-1" points="322.41 218.81 333.54 218.81 332.63 214.21 323.32 214.21 322.41 218.81"/><polygon class="cls-1" points="320.29 229.57 335.67 229.57 334.76 224.97 321.2 224.97 320.29 229.57"/><path class="cls-4" d="M203.65,241.69a.78.78,0,0,0,.76-.62l13.48-65.78a.78.78,0,0,0-.6-.92.79.79,0,0,0-.92.61l-13.48,65.78a.78.78,0,0,0,.6.92Z"/><path class="cls-14" d="M216.5,181.62H236a.78.78,0,1,0,0-1.55H216.5a.78.78,0,0,0,0,1.55Z"/><path class="cls-14" d="M214.6,190.08h19.46a.77.77,0,0,0,.78-.77.78.78,0,0,0-.78-.78H214.6a.77.77,0,0,0-.77.78A.76.76,0,0,0,214.6,190.08Z"/><path class="cls-14" d="M213,198.54h19.46a.77.77,0,0,0,.78-.77.78.78,0,0,0-.78-.78H213a.77.77,0,0,0-.77.78A.76.76,0,0,0,213,198.54Z"/><path class="cls-14" d="M211.21,207h19.46a.78.78,0,0,0,0-1.56H211.21a.78.78,0,0,0,0,1.56Z"/><path class="cls-14" d="M209.55,215.47H229a.78.78,0,0,0,0-1.56H209.55a.78.78,0,0,0,0,1.56Z"/><path class="cls-14" d="M207.9,223.93h19.45a.78.78,0,0,0,.78-.78.77.77,0,0,0-.78-.77H207.9a.77.77,0,0,0-.78.77A.78.78,0,0,0,207.9,223.93Z"/><path class="cls-14" d="M206.22,232.39h19.45a.78.78,0,1,0,0-1.55H206.22a.78.78,0,1,0,0,1.55Z"/><path class="cls-4" d="M224.47,241.69a.77.77,0,0,0,.76-.62l13.49-65.78a.79.79,0,0,0-.61-.92.78.78,0,0,0-.91.61l-13.49,65.78a.79.79,0,0,0,.61.92Z"/><line class="cls-17" x1="288.59" y1="133.07" x2="292.57" y2="143.2"/><polyline class="cls-18" points="278.1 130.63 279.41 132.91 288.42 132.6 295.03 126.71 294.04 123.39"/><line class="cls-18" x1="294.79" y1="122.77" x2="277.24" y2="130.53"/><path class="cls-9" d="M292.35,127.35l-10.27,4.31a2.93,2.93,0,0,1-3.82-1.57h0a2.93,2.93,0,0,1,1.56-3.82l10.27-4.3a2.93,2.93,0,0,1,3.82,1.56h0A2.93,2.93,0,0,1,292.35,127.35Z"/><path class="cls-6" d="M281.5,130.51l10.26-4.3a2.33,2.33,0,1,0-1.67-4.24l-10.27,4.3a2.34,2.34,0,1,0,1.68,4.24Z"/><polygon class="cls-4" points="279.24 224.6 265.92 224.6 263.47 206.37 281.69 206.37 279.24 224.6"/><path class="cls-19" d="M264.66,206.82a7.92,7.92,0,0,1,15.84,0"/><path class="cls-6" d="M278,207a.68.68,0,0,0,.1-.59h-11c-.21,1.24.3,2.6.75,2.66s.93-1.85,1.61-1.81,1.35,1.34.81,4.45c-.49,2.74,1.18,3.32,1.36,3.28,1.71-.32.6-6.58,2.12-7,.57-.17,1.14.68,1.9.36s.66-1,1.42-1.23C277.54,206.93,277.79,207.14,278,207Z"/><path class="cls-6" d="M289.5,190l8.57,1.53,6.46-3.34s-.65-4.56-.61-5.84c.09-3,1.56-9.94-.61-14.85-1.6-3.61-4.58-2-8.35-.78l-4.24.47s-6.8-4.11-2.05,14.83A65.57,65.57,0,0,1,289.5,190Z"/><path class="cls-11" d="M293,153.58a9.69,9.69,0,0,0-2.34,6.88c.05,2.71,4.22,2.84,6.49,1.4a6.21,6.21,0,0,0,2.83-6.17C299.35,152.84,295.29,151.28,293,153.58Z"/><path class="cls-11" d="M292.17,154.81a5.55,5.55,0,0,1-1.9,1.47,2,2,0,0,0,.91,1.12Z"/><path class="cls-6" d="M287,168.75l-2.19,8.34-1.36,4.3L275.11,196l2.6,1.74L288.23,183l1.61-4.59,6.25-12.16c.5-1.43-2.54-1.37-4-1.87S288,165.77,287,168.75Z"/><path class="cls-11" d="M275.47,195.42s-3.15,3.49-1,3.25c1.52-.16.42-.38.42-.38s-2.15,1.88-1.2,1.85,2.95.81,3.43-.49c.59-1.57.86-2.49.86-2.49Z"/><rect class="cls-6" x="276.12" y="193.61" width="2.01" height="4.49" transform="translate(-40.75 314.66) rotate(-55.74)"/><polygon class="cls-6" points="296.7 158.57 291.04 142.7 293.91 141.44 301.71 157.79 302.5 162.59 297.3 163.05 296.7 158.57"/><path class="cls-6" d="M301.63,174.11a2.75,2.75,0,0,1-3.15-2.26l-1.18-8.8,5.2-.46,1.65,7.69A3.68,3.68,0,0,1,301.63,174.11Z"/><path class="cls-11" d="M291.92,143s-3.24-3.44-1.88-4.12l1,1.64s-1.18-4.23-.25-4,2.95,1.38,2.75,2.75c-.25,1.63-.39,3-.39,3Z"/><rect class="cls-6" x="291.81" y="140.85" width="2.01" height="3.91" transform="translate(316.76 -182.1) rotate(68.22)"/><polygon class="cls-11" points="292.39 160.55 292.79 169.48 297.67 167.92 295.37 159.77 292.39 160.55"/><path class="cls-4" d="M294,186a87.86,87.86,0,0,0-1.88-21.6,2.76,2.76,0,0,0-2.2.54,82.85,82.85,0,0,1,1.81,21Z"/><path class="cls-4" d="M305.94,195.71a22,22,0,0,0-1.9-13c-5,2.79-14.92,2.15-14.92,2.15L287.72,198,287,212.49a80,80,0,0,0,3.74,18.94l3.87-.62A98,98,0,0,0,294,212.2s1.95-7.83,3-11.86c.07-.26,1.21-.68,1.27-.91C298.23,199.43,304,199.12,305.94,195.71Z"/><path class="cls-4" d="M299.41,231.31l3.39-.5a59,59,0,0,0,0-18.39,43.13,43.13,0,0,0,2.91-15.35c.09-.46.16-.91.22-1.36-1.94,3.41-7.71,3.72-7.71,3.72l-2.48,13.72S296.77,219.74,299.41,231.31Z"/><path class="cls-14" d="M300.15,199.15a13.14,13.14,0,0,1-1.92.28l-2.48,13.72s1,6.52,3.62,18a2.3,2.3,0,0,0,.88-1c.34-.79-.17-1.3-.81-3.82-.4-1.57-.19-1.34-.82-4.5a36.82,36.82,0,0,0-1-4.22c-.64-1.66-1.29-2.36-1-3.27s1.22-1,1.23-1.77-.63-.9-1-1.5c-.78-1.43.78-3.66,1.23-4.36A14.33,14.33,0,0,0,300.15,199.15Z"/><polygon class="cls-11" points="290.69 231.43 291.42 233.81 294.12 233.6 294.11 230.92 290.69 231.43"/><path class="cls-6" d="M286.52,237.36s0-1.6,3-2.1c1.59-.26.77-1.44.77-1.44l3-.91-2.83,5Z"/><path class="cls-4" d="M293.77,232.88c-2,0-1.86,1.69-2.16,2.77h0a4.93,4.93,0,0,1-4.41,1.79l2.78.38a6.9,6.9,0,0,0,2.75-.17l1.67-.45c1-.54,2-4.22-.47-4.32Z"/><path class="cls-9" d="M286.71,237.39l.49.05C286.59,237.36,286.3,237.32,286.71,237.39Z"/><polygon class="cls-11" points="299.41 231.31 300.11 233.7 302.81 233.49 302.8 230.81 299.41 231.31"/><path class="cls-6" d="M295.2,237.25s0-1.6,3-2.1c1.59-.26.78-1.44.78-1.44l3-.91-2.82,5Z"/><path class="cls-4" d="M302.45,232.77c-2,0-1.85,1.69-2.15,2.77h0a5,5,0,0,1-4.42,1.79l2.78.38a6.9,6.9,0,0,0,2.75-.17l1.68-.45c1-.54,2-4.22-.47-4.32Z"/><path class="cls-9" d="M295.39,237.28l.49.05C295.28,237.25,295,237.21,295.39,237.28Z"/><rect class="cls-4" x="289.88" y="229.85" width="5.05" height="2.13" transform="translate(-23.29 33.02) rotate(-6.22)"/><rect class="cls-4" x="298.58" y="229.36" width="5.05" height="2.13" transform="translate(-23.18 33.96) rotate(-6.22)"/><path class="cls-1" d="M292.31,163.85l-.08,1.5a6.75,6.75,0,0,0,3.21.32,2.72,2.72,0,0,0,1.66-1.52l-.41-1.11S295.57,164.79,292.31,163.85Z"/><path class="cls-13" d="M293.27,151.47s-2.9,2.61.65,5.29c0,0,1.31,1-.63,3.28a1.28,1.28,0,0,0,0,1.64c1.17,1.38,3.75,3.41,6.5-.87,1.27-2,1.44-4.31.38-5.68a6.89,6.89,0,0,0-3.52-2.61C295.23,152,294.48,152.2,293.27,151.47Z"/><path class="cls-13" d="M293.28,160a9.66,9.66,0,0,0-3.21,7.64c0,3.26,3.3,5.88,3.37,6.64.2,2.1-3.17,6.52-2.68,8.71.69,3.17,6.33,4.32,11.86,2,6.32-2.63,7.13-11,1.49-16.82-2.49-2.56-1.68-7.57-2.16-11.23-.28-2.2-.93.13-2-1.5-1.59-2.44-5.51-3.28-6.12-2.53s1.93,2.51,1.38,4.64C294.94,158.66,294.59,158.9,293.28,160Z"/><path class="cls-11" d="M295,157.58a1.13,1.13,0,1,1-1.4-.29A1,1,0,0,1,295,157.58Z"/><path class="cls-6" d="M301.64,158.57,293.32,152a5.3,5.3,0,0,1,8.32,6.57"/><path class="cls-9" d="M299,150.2a5.16,5.16,0,0,1,1.78.93,5.3,5.3,0,0,1,.88,7.44l-2.17-1.71A5.31,5.31,0,0,0,299,150.2Z"/><rect class="cls-9" x="296.04" y="148.6" width="1.51" height="12.29" transform="translate(-4.71 300.1) rotate(-53.27)"/><path class="cls-4" d="M148.75,54.26l.15.1c-.06.68-.09,1.55-.09,2.6v1.82a4.37,4.37,0,0,0,.15,1.39,1.15,1.15,0,0,0,.53.6,1.8,1.8,0,0,0,.89.21,2.51,2.51,0,0,0,1-.22,2.3,2.3,0,0,0,.79-.63,2.56,2.56,0,0,0,.36-.55,4.12,4.12,0,0,0,.06-.79l0-.87v-.85c0-.21,0-.49,0-.85a6.22,6.22,0,0,0-.05-.66.23.23,0,0,0-.12-.19.93.93,0,0,0-.4,0h-.66l-.07-.07v-.33l.06-.06a10.28,10.28,0,0,0,2.52-.59l.15.1C154,55,154,55.91,154,57v1.38c0,.08,0,.71,0,1.91a3.1,3.1,0,0,0,.08.81.36.36,0,0,0,.18.2,2.23,2.23,0,0,0,.7.06h.22l.07.07v.31l-.06.07c-.74,0-1.23-.06-1.48-.06s-.69,0-1.1,0l-.07-.06c0-.53.05-1,.07-1.35a10.46,10.46,0,0,0-1.13,1,1.88,1.88,0,0,1-.69.41,3.05,3.05,0,0,1-1,.16,2.74,2.74,0,0,1-1.37-.28,1.59,1.59,0,0,1-.69-.76,5.07,5.07,0,0,1-.2-1.69V57.07c0-.21,0-.49,0-.85s0-.58-.06-.66a.23.23,0,0,0-.12-.19.93.93,0,0,0-.4,0h-.66l-.07-.07v-.33l.06-.06A10.17,10.17,0,0,0,148.75,54.26Z"/><path class="cls-4" d="M158.37,54.26l.14.1q0,.53-.06,1.38c.42-.35.81-.7,1.19-1.05a1.38,1.38,0,0,1,.31-.22,2.51,2.51,0,0,1,.48-.15,3.1,3.1,0,0,1,.69-.08,2.9,2.9,0,0,1,1.15.25,2.29,2.29,0,0,1,.84.57,1.91,1.91,0,0,1,.4.79,5,5,0,0,1,.11,1.11v1.38c0,.09,0,.74,0,1.94a1.55,1.55,0,0,0,.17.89,1.89,1.89,0,0,0,1,.14l.06.06v.34l-.06.06q-1-.06-1.35-.06l-1.14.06-.09-.09c.07-.67.1-1.56.1-2.65V58c0-.61,0-1.06,0-1.33a1.77,1.77,0,0,0-.26-.74,1.53,1.53,0,0,0-.59-.51,2,2,0,0,0-.87-.19,2.33,2.33,0,0,0-.7.09,2.09,2.09,0,0,0-.65.33,2.34,2.34,0,0,0-.53.48,1.23,1.23,0,0,0-.21.41,6.83,6.83,0,0,0,0,.82v1.36c0,.11,0,.48,0,1.1a7.87,7.87,0,0,0,.07,1.09.41.41,0,0,0,.1.23.28.28,0,0,0,.17.09c.07,0,.35,0,.85.07l.07.06v.33l-.07.07c-.65,0-1.27-.06-1.88-.06s-1.22,0-1.87.06l-.07-.07v-.33l.07-.06c.5,0,.79-.06.85-.07a.37.37,0,0,0,.17-.1.45.45,0,0,0,.11-.23c0-.1,0-.43.06-1s0-1,0-1.29V57.07c0-.21,0-.49,0-.85s0-.58-.05-.66a.23.23,0,0,0-.12-.19,1,1,0,0,0-.41,0h-.65l-.07-.07v-.33l.06-.06A10.39,10.39,0,0,0,158.37,54.26Z"/><path class="cls-4" d="M170.26,51.11v-.33l.07-.07a9.81,9.81,0,0,0,2.51-.57l.15.09q-.09.9-.09,3.6V59q0,.78,0,1.38a2,2,0,0,0,.1.7.54.54,0,0,0,.23.18,4.61,4.61,0,0,0,.91.13l.07.06v.3l-.07.07c-.56,0-1-.06-1.31-.06s-.68,0-1.21.06l-.08-.09c0-.51,0-.86,0-1.07,0,0,0-.12,0-.29a10.39,10.39,0,0,0-.86.69,10.42,10.42,0,0,1-.83.7,2.33,2.33,0,0,1-1,.18,3,3,0,0,1-1.83-.53A2.9,2.9,0,0,1,166,60a4.73,4.73,0,0,1-.32-1.69,4.48,4.48,0,0,1,.33-1.7,2.44,2.44,0,0,1,.95-1.2c.41-.25.85-.5,1.34-.77a2.89,2.89,0,0,1,1.43-.41,3.87,3.87,0,0,1,1.89.5l0-1.75c0-.6,0-1,0-1.26a1,1,0,0,0-.08-.42.28.28,0,0,0-.16-.1,7.24,7.24,0,0,0-.95,0Zm1.34,5a3.48,3.48,0,0,0-1.07-.83,2.61,2.61,0,0,0-1.19-.29,2.3,2.3,0,0,0-1.22.35,2,2,0,0,0-.82,1.06,4.61,4.61,0,0,0-.25,1.52,3.3,3.3,0,0,0,.69,2.19,2.16,2.16,0,0,0,1.74.83,2,2,0,0,0,1-.26,2.15,2.15,0,0,0,.73-.71,2,2,0,0,0,.33-.89c0-.3,0-.84,0-1.63Z"/><path class="cls-4" d="M181.69,60.56l-.25.56a5,5,0,0,1-1.45.68,5.18,5.18,0,0,1-1.14.16,4.5,4.5,0,0,1-1.78-.37,3,3,0,0,1-1.36-1.24,4,4,0,0,1-.53-2.11,5.19,5.19,0,0,1,.2-1.48,3.7,3.7,0,0,1,.43-1,3.25,3.25,0,0,1,.75-.71,4.66,4.66,0,0,1,1.13-.63,3.35,3.35,0,0,1,1.28-.23,3,3,0,0,1,1.65.44,2.36,2.36,0,0,1,1,1.13,3.56,3.56,0,0,1,.29,1.46c0,.16,0,.31,0,.47l-.09.08a8.78,8.78,0,0,1-1.43.16l-1.18,0h-2.51a3.21,3.21,0,0,0,.81,2.38,2.71,2.71,0,0,0,1.95.77,3.05,3.05,0,0,0,1.05-.19,6.23,6.23,0,0,0,1.07-.53Zm-5-3.2q.13,0,1.08.06l1.39,0a11.25,11.25,0,0,0,1.33,0v-.29a2.74,2.74,0,0,0-.49-1.8,1.67,1.67,0,0,0-1.34-.59,1.73,1.73,0,0,0-1.45.66A3.15,3.15,0,0,0,176.68,57.36Z"/><path class="cls-4" d="M185.44,54.26l.15.1c0,.3-.05.84-.07,1.61l.59-.74a4.44,4.44,0,0,1,.51-.57,1.79,1.79,0,0,1,.52-.31,1.83,1.83,0,0,1,.61-.11,1.47,1.47,0,0,1,.65.15l0,.1c-.08.7-.13,1.31-.14,1.83H188a1.06,1.06,0,0,0-1-.72,1.28,1.28,0,0,0-.84.31,1.52,1.52,0,0,0-.48.78,4.78,4.78,0,0,0-.12,1.17v.87c0,.16,0,.54,0,1.15s0,1,.06,1a.41.41,0,0,0,.11.21.53.53,0,0,0,.2.09l1.11.08.07.06v.33l-.07.07c-.69,0-1.41-.06-2.17-.06-.6,0-1.22,0-1.87.06l-.08-.07v-.33l.08-.06c.5,0,.79-.06.85-.07a.37.37,0,0,0,.17-.1.38.38,0,0,0,.1-.23c0-.1,0-.43.07-1s0-1,0-1.29V57.07c0-.21,0-.49,0-.85s0-.58,0-.66a.23.23,0,0,0-.12-.19,1,1,0,0,0-.41,0h-.65l-.07-.07v-.33l.06-.06A10.19,10.19,0,0,0,185.44,54.26Z"/><path class="cls-4" d="M199.55,60.87l-.32.52A4.58,4.58,0,0,1,197,62a3.39,3.39,0,0,1-2.65-1,3.73,3.73,0,0,1-.94-2.64,4.67,4.67,0,0,1,.16-1.3A3.23,3.23,0,0,1,194,56a2.26,2.26,0,0,1,.54-.6,11.57,11.57,0,0,1,1-.61,7.15,7.15,0,0,1,1.07-.51,3.25,3.25,0,0,1,1-.12,3.83,3.83,0,0,1,2,.46c-.1.59-.18,1.25-.23,2l-.07.06h-.32l-.07-.07a5,5,0,0,0-.09-.88c0-.15-.24-.31-.62-.49a2.91,2.91,0,0,0-1.21-.25,2.4,2.4,0,0,0-1.14.27,1.69,1.69,0,0,0-.75.88,3.81,3.81,0,0,0-.25,1.46A4.81,4.81,0,0,0,195,59a3.59,3.59,0,0,0,.53,1.13,2.41,2.41,0,0,0,.88.72,2.74,2.74,0,0,0,1.22.28,3.32,3.32,0,0,0,.83-.11,7.75,7.75,0,0,0,.92-.36Z"/><path class="cls-4" d="M200.4,58.13a4.34,4.34,0,0,1,.38-1.8,3.53,3.53,0,0,1,1.33-1.49,4,4,0,0,1,2.26-.63,3.55,3.55,0,0,1,3.7,3.7,4,4,0,0,1-4,4.1,3.38,3.38,0,0,1-1.95-.59A3.56,3.56,0,0,1,200.81,60,4.14,4.14,0,0,1,200.4,58.13Zm1.47-.54a6.58,6.58,0,0,0,.28,2,3,3,0,0,0,.9,1.38,2,2,0,0,0,1.39.53,1.91,1.91,0,0,0,1.52-.73,3.42,3.42,0,0,0,.6-2.2,5.2,5.2,0,0,0-.65-2.73A2.08,2.08,0,0,0,204,54.74a1.89,1.89,0,0,0-1.59.73A3.41,3.41,0,0,0,201.87,57.59Z"/><path class="cls-4" d="M211.27,54.26l.15.1q0,.53-.06,1.38c.41-.35.81-.7,1.19-1.05a1.34,1.34,0,0,1,.3-.22,3.12,3.12,0,0,1,.48-.15,3.25,3.25,0,0,1,.69-.08,2.87,2.87,0,0,1,1.15.25,2.25,2.25,0,0,1,.85.57,1.78,1.78,0,0,1,.39.79,4.42,4.42,0,0,1,.11,1.11v1.38c0,.09,0,.74,0,1.94a1.55,1.55,0,0,0,.17.89,1.85,1.85,0,0,0,1,.14l.07.06v.34l-.07.06c-.66,0-1.11-.06-1.34-.06l-1.14.06-.09-.09c.06-.67.1-1.56.1-2.65V58c0-.61,0-1.06-.05-1.33a1.53,1.53,0,0,0-.26-.74,1.44,1.44,0,0,0-.58-.51,2,2,0,0,0-.88-.19,2.31,2.31,0,0,0-.69.09,2,2,0,0,0-.65.33,2.34,2.34,0,0,0-.53.48.94.94,0,0,0-.21.41,6.14,6.14,0,0,0,0,.82v1.36c0,.11,0,.48,0,1.1s0,1,.06,1.09a.49.49,0,0,0,.11.23.26.26,0,0,0,.17.09c.07,0,.35,0,.84.07l.07.06v.33l-.06.07c-.65,0-1.28-.06-1.88-.06s-1.23,0-1.88.06l-.07-.07v-.33l.07-.06c.51,0,.79-.06.86-.07a.42.42,0,0,0,.17-.1.45.45,0,0,0,.1-.23c0-.1,0-.43.06-1s0-1,0-1.29V57.07c0-.21,0-.49,0-.85s0-.58-.05-.66a.29.29,0,0,0-.12-.19,1,1,0,0,0-.41,0h-.66l-.07-.07v-.33l.07-.06A10.19,10.19,0,0,0,211.27,54.26Z"/><path class="cls-4" d="M218.7,59.41H219l.07.07a8.5,8.5,0,0,0,.08,1.12,1.65,1.65,0,0,0,.83.6,3.12,3.12,0,0,0,1.17.23,1.94,1.94,0,0,0,1.33-.44,1.38,1.38,0,0,0,.49-1.07,1,1,0,0,0-.18-.58,1.28,1.28,0,0,0-.54-.4,7.26,7.26,0,0,0-1.3-.38c-.54-.13-.91-.23-1.12-.3a1.76,1.76,0,0,1-.62-.35,1.59,1.59,0,0,1-.45-.61,2,2,0,0,1-.16-.81,2,2,0,0,1,.83-1.67,3.36,3.36,0,0,1,2.08-.63,5.52,5.52,0,0,1,1.14.14,6.4,6.4,0,0,1,.93.28l.07.11a13.93,13.93,0,0,0-.07,1.64l-.07.07h-.32l-.07-.07a4.48,4.48,0,0,0-.08-.67,1.11,1.11,0,0,0-.28-.41,2,2,0,0,0-.65-.38,2.49,2.49,0,0,0-.87-.15,2,2,0,0,0-.8.14,1.22,1.22,0,0,0-.52.43,1.26,1.26,0,0,0-.08,1.22.9.9,0,0,0,.37.38,1.78,1.78,0,0,0,.52.21l.85.22a11.22,11.22,0,0,1,1.57.46,1.48,1.48,0,0,1,.73.59,1.71,1.71,0,0,1,.26,1,2.41,2.41,0,0,1-.89,1.86A3.41,3.41,0,0,1,221,62a8.82,8.82,0,0,1-1.22-.11,11.2,11.2,0,0,1-1.25-.24l0-.1.08-.53a3.87,3.87,0,0,0,.05-.49c0-.16,0-.5,0-1Z"/><path class="cls-4" d="M225.05,55.57v-.2l.06-.08a10.54,10.54,0,0,0,1.19-.51c0-1.36,0-2.15-.05-2.37a7.2,7.2,0,0,0,1.32-.6l.19.15c-.06.33-.12,1.28-.19,2.86h.84a10.41,10.41,0,0,0,1.32,0l.06.06-.15.65-.06.08h-2l0,3.17a13.74,13.74,0,0,0,0,1.45.88.88,0,0,0,.28.53,1.07,1.07,0,0,0,.69.19,1.84,1.84,0,0,0,1-.27l.18.28c-.12.09-.42.35-.89.78a2.09,2.09,0,0,1-.83.19,1.54,1.54,0,0,1-1.76-1.71c0-.41,0-.77,0-1.06a2.44,2.44,0,0,0,0-.27V55.6h-.32c-.24,0-.5,0-.81,0Z"/><path class="cls-4" d="M232.91,54.26l.15.1c0,.3-.05.84-.07,1.61l.59-.74a4.44,4.44,0,0,1,.51-.57,1.79,1.79,0,0,1,.52-.31,1.83,1.83,0,0,1,.61-.11,1.47,1.47,0,0,1,.65.15l0,.1c-.08.7-.13,1.31-.14,1.83h-.35a1.06,1.06,0,0,0-1-.72,1.28,1.28,0,0,0-.84.31,1.52,1.52,0,0,0-.48.78,4.78,4.78,0,0,0-.12,1.17v.87c0,.16,0,.54,0,1.15s0,1,.06,1a.41.41,0,0,0,.11.21.53.53,0,0,0,.2.09l1.11.08.07.06v.33l-.07.07c-.69,0-1.42-.06-2.17-.06-.6,0-1.22,0-1.88.06l-.07-.07v-.33l.07-.06c.51,0,.79-.06.86-.07a.42.42,0,0,0,.17-.1.45.45,0,0,0,.1-.23c0-.1,0-.43.07-1s0-1,0-1.29V57.07c0-.21,0-.49,0-.85s0-.58,0-.66a.26.26,0,0,0-.12-.19,1,1,0,0,0-.41,0h-.66l-.07-.07v-.33l.07-.06A10.19,10.19,0,0,0,232.91,54.26Z"/><path class="cls-4" d="M238.94,54.26l.14.1C239,55,239,55.91,239,57v1.82a4.37,4.37,0,0,0,.15,1.39,1.11,1.11,0,0,0,.53.6,1.8,1.8,0,0,0,.89.21,2.51,2.51,0,0,0,1-.22,2.17,2.17,0,0,0,.78-.63,2.77,2.77,0,0,0,.37-.55,4.12,4.12,0,0,0,.06-.79l0-.87v-.85c0-.21,0-.49,0-.85s0-.58-.05-.66a.23.23,0,0,0-.12-.19,1,1,0,0,0-.41,0h-.65l-.07-.07v-.33l.06-.06a10.19,10.19,0,0,0,2.51-.59l.15.1c0,.68-.08,1.55-.08,2.6v1.38c0,.08,0,.71,0,1.91a2.69,2.69,0,0,0,.08.81.33.33,0,0,0,.18.2,2.23,2.23,0,0,0,.7.06h.22l.07.07v.31l-.07.07q-1.1-.06-1.47-.06c-.32,0-.69,0-1.1,0l-.07-.06c0-.53.05-1,.07-1.35a10.46,10.46,0,0,0-1.13,1,1.88,1.88,0,0,1-.69.41,3.07,3.07,0,0,1-1,.16,2.73,2.73,0,0,1-1.36-.28,1.54,1.54,0,0,1-.69-.76,4.81,4.81,0,0,1-.2-1.69V57.07c0-.21,0-.49,0-.85s0-.58,0-.66a.23.23,0,0,0-.12-.19,1,1,0,0,0-.41,0h-.65l-.07-.07v-.33l.06-.06A10.28,10.28,0,0,0,238.94,54.26Z"/><path class="cls-4" d="M252.66,60.87l-.31.52a4.58,4.58,0,0,1-2.25.56,3.41,3.41,0,0,1-2.66-1,3.77,3.77,0,0,1-.93-2.64,4.67,4.67,0,0,1,.16-1.3,3.23,3.23,0,0,1,.4-.95,2.47,2.47,0,0,1,.55-.6,10.16,10.16,0,0,1,1-.61,7.15,7.15,0,0,1,1.07-.51,3.25,3.25,0,0,1,1-.12,3.77,3.77,0,0,1,2,.46c-.1.59-.17,1.25-.22,2l-.07.06h-.32l-.07-.07a6.23,6.23,0,0,0-.09-.88c0-.15-.24-.31-.62-.49a2.91,2.91,0,0,0-1.21-.25,2.34,2.34,0,0,0-1.14.27,1.69,1.69,0,0,0-.75.88,3.81,3.81,0,0,0-.26,1.46,4.82,4.82,0,0,0,.21,1.41,3.59,3.59,0,0,0,.53,1.13,2.41,2.41,0,0,0,.88.72,2.71,2.71,0,0,0,1.22.28,3.24,3.24,0,0,0,.82-.11,7.21,7.21,0,0,0,.93-.36Z"/><path class="cls-4" d="M253.34,55.57v-.2l.06-.08a9.56,9.56,0,0,0,1.18-.51c0-1.36,0-2.15,0-2.37a7.53,7.53,0,0,0,1.32-.6l.19.15c-.06.33-.12,1.28-.19,2.86h.84a10.41,10.41,0,0,0,1.32,0l.06.06-.15.65-.06.08h-2l-.05,3.17a13.74,13.74,0,0,0,.05,1.45.88.88,0,0,0,.28.53,1.05,1.05,0,0,0,.69.19,1.84,1.84,0,0,0,1-.27l.18.28q-.18.13-.9.78a2,2,0,0,1-.82.19,1.53,1.53,0,0,1-1.76-1.71c0-.41,0-.77,0-1.06,0-.09,0-.18,0-.27V55.6h-.32a8.1,8.1,0,0,0-.81,0Z"/><path class="cls-4" d="M261.12,54.26l.14.1c-.05.68-.08,1.55-.08,2.6v1.77c0,.11,0,.48,0,1.1a7.87,7.87,0,0,0,.07,1.09.41.41,0,0,0,.1.23.32.32,0,0,0,.17.09c.07,0,.35,0,.85.07l.07.06v.33l-.07.07c-.65,0-1.27-.06-1.88-.06s-1.22,0-1.87.06l-.07-.07v-.33l.07-.06c.5,0,.79-.06.85-.07a.37.37,0,0,0,.17-.1.45.45,0,0,0,.11-.23c0-.1,0-.43.06-1s0-1,0-1.29V57.07c0-.21,0-.49,0-.85s0-.58,0-.66a.23.23,0,0,0-.12-.19,1,1,0,0,0-.41,0h-.65l-.07-.07v-.33l.06-.06A10.28,10.28,0,0,0,261.12,54.26Zm-.67-3.49a.88.88,0,0,1,.63,1.5.88.88,0,0,1-1.25,0,.84.84,0,0,1-.26-.62.85.85,0,0,1,.26-.62A.83.83,0,0,1,260.45,50.77Z"/><path class="cls-4" d="M263.39,58.13a4.51,4.51,0,0,1,.38-1.8,3.6,3.6,0,0,1,1.33-1.49,4,4,0,0,1,2.26-.63,3.55,3.55,0,0,1,3.7,3.7,4,4,0,0,1-4,4.1,3.38,3.38,0,0,1-1.95-.59A3.63,3.63,0,0,1,263.8,60,4.28,4.28,0,0,1,263.39,58.13Zm1.48-.54a6.27,6.27,0,0,0,.28,2,2.93,2.93,0,0,0,.89,1.38,2.06,2.06,0,0,0,1.39.53,1.91,1.91,0,0,0,1.52-.73,3.42,3.42,0,0,0,.6-2.2,5.11,5.11,0,0,0-.65-2.73A2.07,2.07,0,0,0,267,54.74a1.89,1.89,0,0,0-1.58.73A3.41,3.41,0,0,0,264.87,57.59Z"/><path class="cls-4" d="M274.26,54.26l.15.1q0,.53-.06,1.38c.42-.35.81-.7,1.19-1.05a1.38,1.38,0,0,1,.31-.22,2.51,2.51,0,0,1,.48-.15,3.08,3.08,0,0,1,.68-.08,3,3,0,0,1,1.16.25,2.29,2.29,0,0,1,.84.57,1.78,1.78,0,0,1,.39.79,4.42,4.42,0,0,1,.11,1.11v1.38c0,.09,0,.74,0,1.94a1.55,1.55,0,0,0,.17.89,1.89,1.89,0,0,0,1,.14l.06.06v.34l-.06.06c-.67,0-1.11-.06-1.35-.06l-1.14.06-.09-.09c.07-.67.1-1.56.1-2.65V58c0-.61,0-1.06,0-1.33a1.66,1.66,0,0,0-.27-.74,1.44,1.44,0,0,0-.58-.51,2,2,0,0,0-.88-.19,2.31,2.31,0,0,0-.69.09,2.09,2.09,0,0,0-.65.33,2.34,2.34,0,0,0-.53.48,1.06,1.06,0,0,0-.21.41,6.83,6.83,0,0,0,0,.82v1.36c0,.11,0,.48,0,1.1s0,1,.06,1.09a.49.49,0,0,0,.11.23.28.28,0,0,0,.17.09c.07,0,.35,0,.85.07l.07.06v.33l-.07.07c-.65,0-1.28-.06-1.88-.06s-1.22,0-1.87.06l-.07-.07v-.33l.07-.06c.5,0,.79-.06.85-.07a.37.37,0,0,0,.17-.1.38.38,0,0,0,.1-.23c0-.1,0-.43.07-1s0-1,0-1.29V57.07c0-.21,0-.49,0-.85s0-.58-.05-.66a.23.23,0,0,0-.12-.19,1,1,0,0,0-.41,0h-.65l-.07-.07v-.33l.06-.06A10.19,10.19,0,0,0,274.26,54.26Z"/><path class="cls-4" d="M185.75,30.4l.07.07c0,.47-.07,1.29-.07,2.46l-.06.06h-.37l-.06-.07-.09-.72a4.85,4.85,0,0,0-.1-.71.36.36,0,0,0-.11-.19,1.55,1.55,0,0,0-.51-.09,9.46,9.46,0,0,0-1,0H182q-.06,1.77-.06,2v4.55l0,1.53c0,.58,0,1,0,1.14a.63.63,0,0,0,.11.34.49.49,0,0,0,.28.14,6.19,6.19,0,0,0,1,.09l.06,0v.39l-.06.06-2.23-.06L179,41.5l-.06-.06v-.39l.06,0a8.76,8.76,0,0,0,1-.07.76.76,0,0,0,.32-.13.56.56,0,0,0,.14-.31,5.82,5.82,0,0,0,.06-1.08v-6.2q0-.14-.06-2h-1.17c-.48,0-.89,0-1.24,0s-.55.07-.6.16a2.71,2.71,0,0,0-.16.84l-.07.72-.07.07h-.36l-.07-.06c0-1.26,0-2.08-.07-2.46l.07-.07q1.37.06,4.53.06T185.75,30.4Z"/><path class="cls-4" d="M188.78,29.87l.15.09c-.06.6-.09,1.8-.09,3.61V35.5c.44-.36.85-.72,1.22-1.07a1.12,1.12,0,0,1,.31-.22,2.29,2.29,0,0,1,.48-.15,3.1,3.1,0,0,1,.69-.08,2.89,2.89,0,0,1,1.15.24,2.3,2.3,0,0,1,.84.58,1.81,1.81,0,0,1,.4.78A5,5,0,0,1,194,36.7v1.37c0,.09,0,.74,0,2a1.63,1.63,0,0,0,.16.88c.1.1.42.14,1,.14l.06.07v.33l-.06.06c-.66,0-1.11-.06-1.34-.06l-1.14.06-.1-.08c.07-.68.1-1.56.1-2.65v-1c0-.62,0-1.06,0-1.33a1.73,1.73,0,0,0-.26-.74,1.62,1.62,0,0,0-.58-.52A2,2,0,0,0,191,35a2.3,2.3,0,0,0-.89.15,2.16,2.16,0,0,0-.72.48,1.48,1.48,0,0,0-.44.58,3.29,3.29,0,0,0-.08.88v1.39q0,.18,0,1.11a10.43,10.43,0,0,0,.07,1.09.45.45,0,0,0,.11.23.39.39,0,0,0,.17.09l.84.06.07.07v.32l-.06.07c-.65,0-1.28-.06-1.88-.06s-1.23,0-1.88.06l-.07-.07v-.32l.07-.07a8.25,8.25,0,0,0,.86-.07.4.4,0,0,0,.17-.09.45.45,0,0,0,.1-.23c0-.1,0-.44.06-1s0-1,0-1.29V34.3l0-1.66c0-.57,0-1,0-1.2a1.18,1.18,0,0,0-.08-.4.27.27,0,0,0-.16-.09,7.47,7.47,0,0,0-.95,0l-.07-.07v-.33l.06-.07A9.77,9.77,0,0,0,188.78,29.87Z"/><path class="cls-4" d="M198.35,34l.15.1c-.06.68-.09,1.55-.09,2.6v1.76q0,.18,0,1.11a10.43,10.43,0,0,0,.07,1.09.45.45,0,0,0,.11.23.39.39,0,0,0,.17.09l.84.06.07.07v.32l-.06.07c-.65,0-1.28-.06-1.88-.06s-1.23,0-1.88.06l-.07-.07v-.32l.07-.07a8.25,8.25,0,0,0,.86-.07.4.4,0,0,0,.17-.09.45.45,0,0,0,.1-.23c0-.1,0-.44.06-1s0-1,0-1.29V36.81c0-.21,0-.49,0-.85s0-.58-.05-.67a.27.27,0,0,0-.13-.18.86.86,0,0,0-.4-.06h-.66l-.07-.06v-.34l.06-.06A10.2,10.2,0,0,0,198.35,34Zm-.66-3.5a.89.89,0,0,1,.88.89.83.83,0,0,1-.26.61.82.82,0,0,1-.62.26.84.84,0,0,1-.62-.25.86.86,0,0,1,0-1.25A.85.85,0,0,1,197.69,30.5Z"/><path class="cls-4" d="M200.88,39.14h.34l.07.07a8.66,8.66,0,0,0,.08,1.13,1.71,1.71,0,0,0,.83.6,3.33,3.33,0,0,0,1.17.23,1.9,1.9,0,0,0,1.33-.45,1.36,1.36,0,0,0,.49-1.06,1,1,0,0,0-.18-.58,1.29,1.29,0,0,0-.54-.41,9.51,9.51,0,0,0-1.3-.38c-.54-.12-.91-.22-1.12-.29a1.79,1.79,0,0,1-.62-.36A1.52,1.52,0,0,1,201,37a1.91,1.91,0,0,1-.16-.8,2,2,0,0,1,.83-1.68,3.42,3.42,0,0,1,2.08-.62,4.91,4.91,0,0,1,1.14.14,6.4,6.4,0,0,1,.93.28l.07.11a13.78,13.78,0,0,0-.07,1.64l-.07.07h-.32l-.07-.07a4.48,4.48,0,0,0-.08-.67A1,1,0,0,0,205,35a1.83,1.83,0,0,0-.65-.38,2.49,2.49,0,0,0-.87-.15,2,2,0,0,0-.8.14,1.13,1.13,0,0,0-.52.42,1.28,1.28,0,0,0-.08,1.23,1,1,0,0,0,.37.38,1.93,1.93,0,0,0,.52.2l.85.22a12.81,12.81,0,0,1,1.57.46,1.59,1.59,0,0,1,.73.59,1.74,1.74,0,0,1,.26,1,2.37,2.37,0,0,1-.89,1.85,3.36,3.36,0,0,1-2.29.77,8.62,8.62,0,0,1-1.22-.1c-.49-.08-.91-.16-1.25-.25l0-.1.08-.52c0-.16,0-.33.05-.49s0-.51,0-1Z"/><path class="cls-4" d="M211.66,39.14H212l.07.07a10.87,10.87,0,0,0,.08,1.13,1.71,1.71,0,0,0,.83.6,3.33,3.33,0,0,0,1.17.23,1.9,1.9,0,0,0,1.33-.45,1.37,1.37,0,0,0,.5-1.06,1,1,0,0,0-.18-.58,1.33,1.33,0,0,0-.55-.41,9.51,9.51,0,0,0-1.3-.38c-.54-.12-.91-.22-1.12-.29a1.79,1.79,0,0,1-.62-.36,1.52,1.52,0,0,1-.45-.61,1.91,1.91,0,0,1-.16-.8,2,2,0,0,1,.83-1.68,3.42,3.42,0,0,1,2.08-.62,4.85,4.85,0,0,1,1.14.14,6.4,6.4,0,0,1,.93.28l.07.11a13.78,13.78,0,0,0-.07,1.64l-.07.07h-.32l-.07-.07a4.48,4.48,0,0,0-.08-.67,1,1,0,0,0-.28-.41,1.78,1.78,0,0,0-.64-.38,2.58,2.58,0,0,0-.88-.15,2.08,2.08,0,0,0-.8.14,1.13,1.13,0,0,0-.52.42,1.28,1.28,0,0,0-.08,1.23,1,1,0,0,0,.37.38,2.07,2.07,0,0,0,.52.2l.85.22a12.27,12.27,0,0,1,1.57.46,1.54,1.54,0,0,1,.73.59,1.74,1.74,0,0,1,.26,1,2.37,2.37,0,0,1-.89,1.85,3.36,3.36,0,0,1-2.29.77,8.62,8.62,0,0,1-1.22-.1c-.49-.08-.91-.16-1.25-.25l0-.1.08-.52a4.07,4.07,0,0,0,.05-.49c0-.16,0-.51,0-1Z"/><path class="cls-4" d="M220.57,34l.15.1c-.06.68-.09,1.55-.09,2.6v1.76q0,.18,0,1.11a10.43,10.43,0,0,0,.07,1.09.55.55,0,0,0,.1.23A.51.51,0,0,0,221,41l.84.06.07.07v.32l-.06.07c-.65,0-1.28-.06-1.88-.06s-1.23,0-1.88.06l-.07-.07v-.32l.07-.07A8.25,8.25,0,0,0,219,41a.4.4,0,0,0,.17-.09.45.45,0,0,0,.1-.23c0-.1,0-.44.06-1s0-1,0-1.29V36.81c0-.21,0-.49,0-.85s0-.58-.06-.67a.23.23,0,0,0-.12-.18.86.86,0,0,0-.4-.06h-.66L218,35v-.34l.06-.06A10.2,10.2,0,0,0,220.57,34Zm-.67-3.5a.89.89,0,0,1,.89.89.83.83,0,0,1-.26.61.82.82,0,0,1-.63.26.88.88,0,0,1-.62-.25.88.88,0,0,1,0-1.25A.89.89,0,0,1,219.9,30.5Z"/><path class="cls-4" d="M222.67,35.31v-.2l.06-.08a10.29,10.29,0,0,0,1.18-.51c0-1.36,0-2.15,0-2.38a6.3,6.3,0,0,0,1.32-.6l.18.16c-.05.33-.11,1.28-.18,2.86H226a13.08,13.08,0,0,0,1.32,0l.05,0-.14.66-.07.07h-2l-.05,3.18a13.51,13.51,0,0,0,.05,1.44.79.79,0,0,0,.28.53,1,1,0,0,0,.68.19,1.82,1.82,0,0,0,1-.27l.19.28q-.18.14-.9.78a1.87,1.87,0,0,1-.83.19,1.53,1.53,0,0,1-1.75-1.7c0-.42,0-.77,0-1.06,0-.09,0-.18,0-.28V35.34h-.32l-.81,0Z"/><path class="cls-4" d="M234.44,40.29l-.25.57a5.56,5.56,0,0,1-1.45.68,5.11,5.11,0,0,1-1.14.15,4.34,4.34,0,0,1-1.78-.37,2.89,2.89,0,0,1-1.36-1.24,3.91,3.91,0,0,1-.53-2.11,5.25,5.25,0,0,1,.2-1.48,3.86,3.86,0,0,1,.43-1,3.47,3.47,0,0,1,.75-.71,4.81,4.81,0,0,1,1.13-.62,3.35,3.35,0,0,1,1.28-.24,3.13,3.13,0,0,1,1.65.44,2.41,2.41,0,0,1,1,1.13,3.63,3.63,0,0,1,.29,1.46c0,.16,0,.32,0,.47l-.09.09a7.92,7.92,0,0,1-1.43.15l-1.18,0h-2.51a3.23,3.23,0,0,0,.81,2.39,2.7,2.7,0,0,0,1.95.76,2.84,2.84,0,0,0,1.05-.19,6.14,6.14,0,0,0,1.07-.52Zm-5-3.19,1.08,0,1.39,0a11.25,11.25,0,0,0,1.33,0v-.28a2.79,2.79,0,0,0-.49-1.81,1.67,1.67,0,0,0-1.34-.59,1.74,1.74,0,0,0-1.45.67A3.13,3.13,0,0,0,229.43,37.1Z"/><path class="cls-4" d="M242.11,34l.15.1c-.06.68-.09,1.55-.09,2.6v1.76q0,.18,0,1.11a8,8,0,0,0,.07,1.09.55.55,0,0,0,.1.23.51.51,0,0,0,.18.09l.84.06.07.07v.32l-.06.07q-1-.06-1.89-.06c-.59,0-1.22,0-1.87.06l-.07-.07v-.32l.07-.07a7.9,7.9,0,0,0,.85-.07.38.38,0,0,0,.18-.09.45.45,0,0,0,.1-.23c0-.1,0-.44.06-1s0-1,0-1.29V36.81c0-.21,0-.49,0-.85s0-.58-.05-.67a.23.23,0,0,0-.12-.18.86.86,0,0,0-.4-.06h-.66l-.07-.06v-.34l.06-.06A10.2,10.2,0,0,0,242.11,34Zm-.67-3.5a.89.89,0,0,1,.89.89.83.83,0,0,1-.26.61.82.82,0,0,1-.63.26.88.88,0,0,1-.62-1.5A.87.87,0,0,1,241.44,30.5Z"/><path class="cls-4" d="M244.64,39.14H245l.07.07a11.18,11.18,0,0,0,.07,1.13,1.69,1.69,0,0,0,.84.6,3.33,3.33,0,0,0,1.17.23,1.93,1.93,0,0,0,1.33-.45,1.36,1.36,0,0,0,.49-1.06,1,1,0,0,0-.18-.58,1.29,1.29,0,0,0-.54-.41,10,10,0,0,0-1.3-.38c-.54-.12-.91-.22-1.13-.29a1.75,1.75,0,0,1-.61-.36,1.64,1.64,0,0,1-.46-.61,2.07,2.07,0,0,1-.15-.8,2,2,0,0,1,.83-1.68,3.37,3.37,0,0,1,2.07-.62,4.79,4.79,0,0,1,1.14.14,6.61,6.61,0,0,1,.94.28l.07.11a12.89,12.89,0,0,0-.08,1.64l-.07.07h-.31l-.07-.07a3.24,3.24,0,0,0-.09-.67.89.89,0,0,0-.28-.41,1.7,1.7,0,0,0-.64-.38,2.53,2.53,0,0,0-.87-.15,2,2,0,0,0-.8.14,1.21,1.21,0,0,0-.53.42,1.25,1.25,0,0,0-.2.7,1.07,1.07,0,0,0,.13.53,1,1,0,0,0,.37.38,1.93,1.93,0,0,0,.52.2l.85.22a12.81,12.81,0,0,1,1.57.46,1.59,1.59,0,0,1,.73.59,1.74,1.74,0,0,1,.26,1,2.37,2.37,0,0,1-.89,1.85,3.36,3.36,0,0,1-2.29.77,8.86,8.86,0,0,1-1.23-.1c-.48-.08-.9-.16-1.24-.25l0-.1.08-.52a4,4,0,0,0,0-.49c0-.16,0-.51,0-1Z"/></g></g></svg>